<svg fill="#000000" height="200px" width="200px" version="1.1" id="Layer_1" xmlns="http://www.w3.org/2000/svg" xmlns:xlink="http://www.w3.org/1999/xlink" viewBox="0 0 512 512" xml:space="preserve"><g id="SVGRepo_bgCarrier" stroke-width="0"></g><g id="SVGRepo_tracerCarrier" stroke-linecap="round" stroke-linejoin="round"></g><g id="SVGRepo_iconCarrier"> <g> <g> <path d="M366.848,201.923H145.151c-4.773,0-8.641,3.869-8.641,8.641s3.869,8.64,8.641,8.64h221.696 c4.773,0,8.641-3.869,8.641-8.64S371.621,201.923,366.848,201.923z"></path> </g> </g> <g> <g> <path d="M366.848,258.88H145.151c-4.773,0-8.641,3.869-8.641,8.64s3.869,8.641,8.641,8.641h221.696 c4.773,0,8.641-3.869,8.641-8.641S371.621,258.88,366.848,258.88z"></path> </g> </g> <g> <g> <path d="M366.848,315.837H145.151c-4.773,0-8.641,3.869-8.641,8.641s3.869,8.641,8.641,8.641h221.696 c4.773,0,8.641-3.869,8.641-8.641S371.621,315.837,366.848,315.837z"></path> </g> </g> <g> <g> <path d="M366.848,449.487h-106.49c-4.773,0-8.641,3.869-8.641,8.64s3.867,8.641,8.641,8.641h106.49 c4.773,0,8.641-3.869,8.641-8.641S371.619,449.487,366.848,449.487z"></path> </g> </g> <g> <g> <path d="M432.838,408.029c-4.773,0-8.64,3.869-8.64,8.641v78.05H87.802V17.281h33.8c4.773,0,8.64-3.869,8.64-8.64 c0-4.772-3.867-8.641-8.64-8.641H79.161c-4.773,0-8.641,3.869-8.641,8.641V503.36c0,4.772,3.867,8.64,8.641,8.64h353.677 c4.773,0,8.64-3.869,8.64-8.64v-86.69C441.478,411.897,437.611,408.029,432.838,408.029z"></path> </g> </g> <g> <g> <path d="M438.949,74.885L366.594,2.531C364.973,0.91,362.776,0,360.484,0h-204.32c-4.773,0-8.64,3.869-8.64,8.641 c0,4.772,3.867,8.64,8.64,8.64h116.37v122.463c0,4.772,3.867,8.641,8.641,8.641h143.024v233.723c0,4.772,3.867,8.64,8.64,8.64 s8.641-3.869,8.641-8.64V80.995C441.479,78.703,440.569,76.505,438.949,74.885z M424.197,131.104H289.815V17.281h67.09 l67.292,67.292V131.104z"></path> </g> </g> </g></svg>